<mxfile host="65bd71144e">
    <diagram id="ZZ0vjxSH34d0E-4yJEqw" name="第1頁">
        <mxGraphModel dx="585" dy="864" grid="1" gridSize="10" guides="1" tooltips="1" connect="1" arrows="1" fold="1" page="1" pageScale="1" pageWidth="827" pageHeight="1169" math="0" shadow="0">
            <root>
                <mxCell id="0"/>
                <mxCell id="1" parent="0"/>
                <mxCell id="2" value="委員" style="shape=umlActor;verticalLabelPosition=bottom;verticalAlign=top;html=1;outlineConnect=0;" vertex="1" parent="1">
                    <mxGeometry x="120" y="70" width="30" height="60" as="geometry"/>
                </mxCell>
                <mxCell id="3" value="住戶" style="shape=umlActor;verticalLabelPosition=bottom;verticalAlign=top;html=1;outlineConnect=0;" vertex="1" parent="1">
                    <mxGeometry x="220" y="70" width="30" height="60" as="geometry"/>
                </mxCell>
                <mxCell id="6" value="Diagram1 heading" style="shape=umlFrame;whiteSpace=wrap;html=1;width=120;height=30;boundedLbl=1;verticalAlign=middle;align=left;spacingLeft=5;" vertex="1" parent="1">
                    <mxGeometry x="30" y="180" width="580" height="370" as="geometry"/>
                </mxCell>
            </root>
        </mxGraphModel>
    </diagram>
</mxfile>